<svg width="115" height="28" viewBox="0 0 115 28" fill="none" xmlns="http://www.w3.org/2000/svg">
<path d="M8.4 22.24C7.33333 22.24 6.34333 22.0467 5.43 21.66C4.51667 21.2733 3.72 20.7333 3.04 20.04C2.36 19.3467 1.83 18.5333 1.45 17.6C1.07 16.6667 0.88 15.6467 0.88 14.54C0.88 13.4333 1.06667 12.41 1.44 11.47C1.81333 10.53 2.34 9.71667 3.02 9.03C3.7 8.34333 4.49667 7.81 5.41 7.43C6.32333 7.05 7.32 6.86 8.4 6.86C9.48 6.86 10.45 7.04 11.31 7.4C12.17 7.76 12.9 8.24 13.5 8.84C14.1 9.44 14.5267 10.1067 14.78 10.84L12.04 12.16C11.7867 11.44 11.3433 10.8433 10.71 10.37C10.0767 9.89667 9.30667 9.66 8.4 9.66C7.52 9.66 6.74667 9.86667 6.08 10.28C5.41333 10.6933 4.89667 11.2633 4.53 11.99C4.16333 12.7167 3.98 13.5667 3.98 14.54C3.98 15.5133 4.16333 16.3667 4.53 17.1C4.89667 17.8333 5.41333 18.4067 6.08 18.82C6.74667 19.2333 7.52 19.44 8.4 19.44C9.30667 19.44 10.0767 19.2033 10.71 18.73C11.3433 18.2567 11.7867 17.66 12.04 16.94L14.78 18.26C14.5267 18.9933 14.1 19.66 13.5 20.26C12.9 20.86 12.17 21.34 11.31 21.7C10.45 22.06 9.48 22.24 8.4 22.24ZM17.74 26.4C17.42 26.4 17.11 26.3733 16.81 26.32C16.51 26.2667 16.2467 26.18 16.02 26.06V23.6C16.2067 23.6533 16.4267 23.7 16.68 23.74C16.9333 23.78 17.1667 23.8 17.38 23.8C17.9667 23.8 18.3867 23.6633 18.64 23.39C18.8933 23.1167 19.1 22.8067 19.26 22.46L20 20.76L19.96 23.26L15.16 11.08H18.38L21.56 19.74H20.36L23.54 11.08H26.76L22.08 23.02C21.7867 23.7667 21.4267 24.3933 21 24.9C20.5733 25.4067 20.09 25.7833 19.55 26.03C19.01 26.2767 18.4067 26.4 17.74 26.4ZM33.7 22.24C32.9533 22.24 32.2633 22.1033 31.63 21.83C30.9967 21.5567 30.4867 21.1533 30.1 20.62L30.38 20V22H27.58V6.86H30.58V13.16L30.12 12.56C30.48 12.0133 30.97 11.59 31.59 11.29C32.21 10.99 32.92 10.84 33.72 10.84C34.76 10.84 35.7 11.0933 36.54 11.6C37.38 12.1067 38.0467 12.79 38.54 13.65C39.0333 14.51 39.28 15.4733 39.28 16.54C39.28 17.5933 39.0367 18.5533 38.55 19.42C38.0633 20.2867 37.4 20.9733 36.56 21.48C35.72 21.9867 34.7667 22.24 33.7 22.24ZM33.34 19.54C33.9 19.54 34.3933 19.4133 34.82 19.16C35.2467 18.9067 35.58 18.5533 35.82 18.1C36.06 17.6467 36.18 17.1267 36.18 16.54C36.18 15.9533 36.06 15.4367 35.82 14.99C35.58 14.5433 35.2467 14.19 34.82 13.93C34.3933 13.67 33.9 13.54 33.34 13.54C32.8067 13.54 32.33 13.6667 31.91 13.92C31.49 14.1733 31.1633 14.5267 30.93 14.98C30.6967 15.4333 30.58 15.9533 30.58 16.54C30.58 17.1267 30.6967 17.6467 30.93 18.1C31.1633 18.5533 31.49 18.9067 31.91 19.16C32.33 19.4133 32.8067 19.54 33.34 19.54ZM45.8 22.24C44.64 22.24 43.6333 21.9833 42.78 21.47C41.9267 20.9567 41.2667 20.2667 40.8 19.4C40.3333 18.5333 40.1 17.5733 40.1 16.52C40.1 15.4267 40.3433 14.4533 40.83 13.6C41.3167 12.7467 41.9733 12.0733 42.8 11.58C43.6267 11.0867 44.56 10.84 45.6 10.84C46.4667 10.84 47.2333 10.9767 47.9 11.25C48.5667 11.5233 49.13 11.9067 49.59 12.4C50.05 12.8933 50.4 13.4633 50.64 14.11C50.88 14.7567 51 15.46 51 16.22C51 16.4333 50.99 16.6433 50.97 16.85C50.95 17.0567 50.9133 17.2333 50.86 17.38H42.68V15.18H49.16L47.74 16.22C47.8733 15.6467 47.8667 15.1367 47.72 14.69C47.5733 14.2433 47.3167 13.89 46.95 13.63C46.5833 13.37 46.1333 13.24 45.6 13.24C45.08 13.24 44.6333 13.3667 44.26 13.62C43.8867 13.8733 43.6067 14.2467 43.42 14.74C43.2333 15.2333 43.16 15.8333 43.2 16.54C43.1467 17.1533 43.22 17.6933 43.42 18.16C43.62 18.6267 43.9267 18.99 44.34 19.25C44.7533 19.51 45.2533 19.64 45.84 19.64C46.3733 19.64 46.83 19.5333 47.21 19.32C47.59 19.1067 47.8867 18.8133 48.1 18.44L50.5 19.58C50.2867 20.1133 49.95 20.58 49.49 20.98C49.03 21.38 48.4867 21.69 47.86 21.91C47.2333 22.13 46.5467 22.24 45.8 22.24ZM52.26 22V11.08H55.06V13.7L54.86 13.32C55.1 12.4 55.4967 11.7767 56.05 11.45C56.6033 11.1233 57.26 10.96 58.02 10.96H58.66V13.56H57.72C56.9867 13.56 56.3933 13.7833 55.94 14.23C55.4867 14.6767 55.26 15.3067 55.26 16.12V22H52.26ZM65.12 22.24C64.1867 22.24 63.31 22.07 62.49 21.73C61.67 21.39 60.9633 20.9067 60.37 20.28C59.7767 19.6533 59.3333 18.9133 59.04 18.06L61.58 16.92C61.9533 17.7333 62.47 18.3733 63.13 18.84C63.79 19.3067 64.52 19.54 65.32 19.54C65.7467 19.54 66.1133 19.4733 66.42 19.34C66.7267 19.2067 66.9667 19.0233 67.14 18.79C67.3133 18.5567 67.4 18.28 67.4 17.96C67.4 17.6133 67.2933 17.3167 67.08 17.07C66.8667 16.8233 66.5333 16.6267 66.08 16.48L63.16 15.52C61.9733 15.1333 61.08 14.5833 60.48 13.87C59.88 13.1567 59.58 12.3 59.58 11.3C59.58 10.42 59.7967 9.64667 60.23 8.98C60.6633 8.31333 61.27 7.79333 62.05 7.42C62.83 7.04667 63.7267 6.86 64.74 6.86C65.6333 6.86 66.46 7.01333 67.22 7.32C67.98 7.62667 68.6367 8.06 69.19 8.62C69.7433 9.18 70.16 9.85333 70.44 10.64L67.92 11.78C67.64 11.0867 67.22 10.5433 66.66 10.15C66.1 9.75667 65.46 9.56 64.74 9.56C64.3267 9.56 63.96 9.62667 63.64 9.76C63.32 9.89333 63.0733 10.0833 62.9 10.33C62.7267 10.5767 62.64 10.86 62.64 11.18C62.64 11.5267 62.7533 11.83 62.98 12.09C63.2067 12.35 63.5467 12.5533 64 12.7L66.86 13.62C68.06 14.0067 68.9567 14.5467 69.55 15.24C70.1433 15.9333 70.44 16.78 70.44 17.78C70.44 18.6467 70.2133 19.4167 69.76 20.09C69.3067 20.7633 68.6833 21.29 67.89 21.67C67.0967 22.05 66.1733 22.24 65.12 22.24ZM77.28 22.24C76.1867 22.24 75.2033 21.99 74.33 21.49C73.4567 20.99 72.7633 20.3067 72.25 19.44C71.7367 18.5733 71.48 17.6 71.48 16.52C71.48 15.44 71.7333 14.47 72.24 13.61C72.7467 12.75 73.44 12.0733 74.32 11.58C75.2 11.0867 76.1867 10.84 77.28 10.84C78.0933 10.84 78.8467 10.98 79.54 11.26C80.2333 11.54 80.8267 11.93 81.32 12.43C81.8133 12.93 82.1667 13.52 82.38 14.2L79.78 15.32C79.5933 14.7733 79.2767 14.34 78.83 14.02C78.3833 13.7 77.8667 13.54 77.28 13.54C76.76 13.54 76.2967 13.6667 75.89 13.92C75.4833 14.1733 75.1633 14.5267 74.93 14.98C74.6967 15.4333 74.58 15.9533 74.58 16.54C74.58 17.1267 74.6967 17.6467 74.93 18.1C75.1633 18.5533 75.4833 18.9067 75.89 19.16C76.2967 19.4133 76.76 19.54 77.28 19.54C77.88 19.54 78.4 19.38 78.84 19.06C79.28 18.74 79.5933 18.3067 79.78 17.76L82.38 18.9C82.18 19.54 81.8333 20.1133 81.34 20.62C80.8467 21.1267 80.2533 21.5233 79.56 21.81C78.8667 22.0967 78.1067 22.24 77.28 22.24ZM89.06 22.24C87.98 22.24 86.9967 21.9933 86.11 21.5C85.2233 21.0067 84.5167 20.33 83.99 19.47C83.4633 18.61 83.2 17.6333 83.2 16.54C83.2 15.4333 83.4633 14.4533 83.99 13.6C84.5167 12.7467 85.2233 12.0733 86.11 11.58C86.9967 11.0867 87.98 10.84 89.06 10.84C90.14 10.84 91.12 11.0867 92 11.58C92.88 12.0733 93.5833 12.7467 94.11 13.6C94.6367 14.4533 94.9 15.4333 94.9 16.54C94.9 17.6333 94.6367 18.61 94.11 19.47C93.5833 20.33 92.88 21.0067 92 21.5C91.12 21.9933 90.14 22.24 89.06 22.24ZM89.06 19.54C89.6067 19.54 90.0833 19.4133 90.49 19.16C90.8967 18.9067 91.2167 18.5533 91.45 18.1C91.6833 17.6467 91.8 17.1267 91.8 16.54C91.8 15.9533 91.6833 15.4367 91.45 14.99C91.2167 14.5433 90.8967 14.19 90.49 13.93C90.0833 13.67 89.6067 13.54 89.06 13.54C88.5133 13.54 88.0333 13.67 87.62 13.93C87.2067 14.19 86.8833 14.5433 86.65 14.99C86.4167 15.4367 86.3 15.9533 86.3 16.54C86.3 17.1267 86.4167 17.6467 86.65 18.1C86.8833 18.5533 87.2067 18.9067 87.62 19.16C88.0333 19.4133 88.5133 19.54 89.06 19.54ZM100.08 22.24C99.2 22.24 98.45 22.05 97.83 21.67C97.21 21.29 96.74 20.76 96.42 20.08C96.1 19.4 95.94 18.6067 95.94 17.7V11.08H98.94V17.46C98.94 17.8733 99.0233 18.2367 99.19 18.55C99.3567 18.8633 99.5933 19.1067 99.9 19.28C100.207 19.4533 100.553 19.54 100.94 19.54C101.34 19.54 101.69 19.4533 101.99 19.28C102.29 19.1067 102.523 18.8633 102.69 18.55C102.857 18.2367 102.94 17.8733 102.94 17.46V11.08H105.94V22H103.14V19.84L103.3 20.32C103.047 20.9733 102.637 21.4567 102.07 21.77C101.503 22.0833 100.84 22.24 100.08 22.24ZM112.9 22.12C111.58 22.12 110.557 21.7633 109.83 21.05C109.103 20.3367 108.74 19.34 108.74 18.06V13.68H106.9V11.08H107C107.56 11.08 107.99 10.94 108.29 10.66C108.59 10.38 108.74 9.96 108.74 9.4V8.6H111.74V11.08H114.3V13.68H111.74V17.86C111.74 18.2333 111.807 18.5433 111.94 18.79C112.073 19.0367 112.28 19.22 112.56 19.34C112.84 19.46 113.187 19.52 113.6 19.52C113.693 19.52 113.8 19.5133 113.92 19.5C114.04 19.4867 114.167 19.4733 114.3 19.46V22C114.1 22.0267 113.873 22.0533 113.62 22.08C113.367 22.1067 113.127 22.12 112.9 22.12Z" fill="#1D4ED8"/>
</svg>
